<svg width="40" height="23" viewBox="0 0 40 23" fill="none" xmlns="http://www.w3.org/2000/svg">
<path d="M29.8025 6.80926L33.1314 1.03942C33.223 0.88016 33.2478 0.691065 33.2003 0.513576C33.1527 0.336087 33.0368 0.184683 32.8778 0.0925443C32.7187 0.000879532 32.5296 -0.023867 32.3522 0.0237399C32.1748 0.0713469 32.0236 0.187414 31.9317 0.346451L28.5614 6.18942C25.9834 5.01223 23.0888 4.35645 20 4.35645C16.9112 4.35645 14.0161 5.01223 11.4388 6.18942L8.06828 0.346294C7.97635 0.187274 7.82507 0.0712367 7.64765 0.0236607C7.47024 -0.0239153 7.28119 0.000859164 7.12203 0.0925443C6.96299 0.184621 6.84698 0.336038 6.79946 0.513562C6.75195 0.691085 6.77681 0.880208 6.86859 1.03942L10.1975 6.80926C4.48141 9.92083 0.571875 15.7124 0 22.5546H40C39.4277 15.7124 35.518 9.92083 29.8025 6.80926ZM29.1898 13.5202C30.1005 13.5202 30.8411 14.2747 30.8411 15.2021C30.8411 16.1297 30.1005 16.8847 29.1898 16.8847C28.2795 16.8847 27.5389 16.1297 27.5389 15.2021C27.5389 14.2747 28.2795 13.5202 29.1898 13.5202ZM10.81 13.5202C11.7203 13.5202 12.4611 14.2747 12.4611 15.2021C12.4611 16.1297 11.7203 16.8847 10.81 16.8847C9.89937 16.8847 9.15891 16.1297 9.15891 15.2021C9.15891 14.2747 9.89953 13.5202 10.81 13.5202Z" fill="#3DDC84"/>
</svg>
