<svg width="34" height="31" viewBox="0 0 34 31" fill="none" xmlns="http://www.w3.org/2000/svg">
<path d="M33.75 9.38064C33.75 14.1619 30.9844 19.0681 25.5313 23.9744C23.0551 26.2005 20.3589 28.1689 17.4844 29.8494C17.2976 29.952 17.088 30.0057 16.875 30.0057C16.662 30.0057 16.4524 29.952 16.2656 29.8494C15.5938 29.4744 1.6962e-06 20.615 1.6962e-06 9.38064C-0.00100982 7.69884 0.450407 6.04773 1.30694 4.60038C2.16347 3.15304 3.39357 1.96275 4.8683 1.15428C6.34303 0.345812 8.00809 -0.0510609 9.68895 0.0052594C11.3698 0.0615797 13.0046 0.56902 14.4219 1.47439C14.4999 1.52569 14.5654 1.59382 14.6136 1.67376C14.6618 1.7537 14.6915 1.84342 14.7005 1.93634C14.7095 2.02926 14.6975 2.12301 14.6656 2.21071C14.6336 2.29841 14.5823 2.37783 14.5156 2.44314L11.7031 5.25564C11.4694 5.48997 11.3381 5.80746 11.3381 6.13845C11.3381 6.46945 11.4694 6.78693 11.7031 7.02127L17.0781 12.3806L14.7344 14.74C14.6167 14.855 14.5233 14.9923 14.4594 15.1439C14.3956 15.2955 14.3627 15.4583 14.3627 15.6228C14.3627 15.7873 14.3956 15.9501 14.4594 16.1017C14.5233 16.2534 14.6167 16.3907 14.7344 16.5056C14.9677 16.7354 15.2819 16.8645 15.6094 16.865C15.9413 16.8636 16.2601 16.735 16.5 16.5056L19.7344 13.2713C19.9681 13.0369 20.0994 12.7194 20.0994 12.3885C20.0994 12.0575 19.9681 11.74 19.7344 11.5056L14.3594 6.13064L17.75 2.75564C18.6161 1.87995 19.6481 1.18572 20.7856 0.713536C21.9231 0.241354 23.1434 0.000697885 24.375 0.00563968C26.8614 0.00563968 29.246 0.99336 31.0041 2.75151C32.7623 4.50967 33.75 6.89424 33.75 9.38064Z" fill="#C71D1D"/>
</svg>
