<svg width="32" height="32" viewBox="0 0 32 32" fill="none" xmlns="http://www.w3.org/2000/svg">
<path d="M11.3571 2.42582C11.2624 2.42582 11.1716 2.46344 11.1046 2.53042C11.0376 2.5974 11 2.68824 11 2.78296V9.92867C11 10.2128 10.8871 10.4854 10.6862 10.6863C10.4853 10.8872 10.2127 11.0001 9.92857 11.0001H2.78571C2.69099 11.0001 2.60015 11.0377 2.53317 11.1047C2.4662 11.1717 2.42857 11.2625 2.42857 11.3572V20.643C2.42857 20.8401 2.58857 21.0001 2.78571 21.0001H9.92857C10.2127 21.0001 10.4853 21.113 10.6862 21.3139C10.8871 21.5148 11 21.7874 11 22.0715V29.2158C11 29.413 11.16 29.573 11.3571 29.573H20.6429C20.7376 29.573 20.8284 29.5353 20.8954 29.4684C20.9624 29.4014 21 29.3105 21 29.2158V22.0715C21 21.7874 21.1129 21.5148 21.3138 21.3139C21.5147 21.113 21.7873 21.0001 22.0714 21.0001H29.2143C29.309 21.0001 29.3998 20.9625 29.4668 20.8955C29.5338 20.8285 29.5714 20.7377 29.5714 20.643V11.3572C29.5714 11.2625 29.5338 11.1717 29.4668 11.1047C29.3998 11.0377 29.309 11.0001 29.2143 11.0001H22.0714C21.7873 11.0001 21.5147 10.8872 21.3138 10.6863C21.1129 10.4854 21 10.2128 21 9.92867V2.78439C21 2.68967 20.9624 2.59883 20.8954 2.53185C20.8284 2.46487 20.7376 2.42724 20.6429 2.42724L11.3571 2.42582ZM8.85714 2.78296C8.85714 1.40296 9.97714 0.282959 11.3571 0.282959H20.6429C22.0229 0.282959 23.1429 1.40296 23.1429 2.78296V8.85724H29.2143C30.5943 8.85724 31.7143 9.97582 31.7143 11.3572V20.643C31.7143 21.306 31.4509 21.9419 30.9821 22.4107C30.5132 22.8796 29.8773 23.143 29.2143 23.143H23.1429V29.2158C23.1429 29.8789 22.8795 30.5147 22.4106 30.9836C21.9418 31.4524 21.3059 31.7158 20.6429 31.7158H11.3571C10.6941 31.7158 10.0582 31.4524 9.58937 30.9836C9.12053 30.5147 8.85714 29.8789 8.85714 29.2158V23.143H2.78571C2.12267 23.143 1.48679 22.8796 1.01795 22.4107C0.549105 21.9419 0.285713 21.306 0.285713 20.643V11.3572C0.285713 9.97724 1.40571 8.85724 2.78571 8.85724H8.85714V2.78296Z" fill="#32E364"/>
</svg>
