<svg width="40" height="41" viewBox="0 0 40 41" fill="none" xmlns="http://www.w3.org/2000/svg">
<path d="M31.5927 1.39893H8.45212C5.25706 1.39893 2.66696 4.16409 2.66696 7.5751V29.1917C2.66696 32.6027 5.25706 35.3679 8.45212 35.3679H31.5927C34.7878 35.3679 37.3779 32.6027 37.3779 29.1917V7.5751C37.3779 4.16409 34.7878 1.39893 31.5927 1.39893Z" fill="url(#paint0_linear_76_566)"/>
<path d="M31.5927 1.39893H8.45212C5.25706 1.39893 2.66696 4.16409 2.66696 7.5751V29.1917C2.66696 32.6027 5.25706 35.3679 8.45212 35.3679H31.5927C34.7878 35.3679 37.3779 32.6027 37.3779 29.1917V7.5751C37.3779 4.16409 34.7878 1.39893 31.5927 1.39893Z" fill="url(#paint1_linear_76_566)"/>
<path d="M31.5927 1.39893H8.45212C5.25706 1.39893 2.66696 4.16409 2.66696 7.5751V29.1917C2.66696 32.6027 5.25706 35.3679 8.45212 35.3679H31.5927C34.7878 35.3679 37.3779 32.6027 37.3779 29.1917V7.5751C37.3779 4.16409 34.7878 1.39893 31.5927 1.39893Z" fill="url(#paint2_linear_76_566)"/>
<path d="M31.5927 1.39893H8.45212C5.25706 1.39893 2.66696 4.16409 2.66696 7.5751V29.1917C2.66696 32.6027 5.25706 35.3679 8.45212 35.3679H31.5927C34.7878 35.3679 37.3779 32.6027 37.3779 29.1917V7.5751C37.3779 4.16409 34.7878 1.39893 31.5927 1.39893Z" fill="url(#paint3_linear_76_566)"/>
<path d="M31.5927 1.39893H8.45212C5.25706 1.39893 2.66696 4.16409 2.66696 7.5751V29.1917C2.66696 32.6027 5.25706 35.3679 8.45212 35.3679H31.5927C34.7878 35.3679 37.3779 32.6027 37.3779 29.1917V7.5751C37.3779 4.16409 34.7878 1.39893 31.5927 1.39893Z" fill="url(#paint4_linear_76_566)"/>
<path d="M31.5927 1.39893H8.45212C5.25706 1.39893 2.66696 4.16409 2.66696 7.5751V29.1917C2.66696 32.6027 5.25706 35.3679 8.45212 35.3679H31.5927C34.7878 35.3679 37.3779 32.6027 37.3779 29.1917V7.5751C37.3779 4.16409 34.7878 1.39893 31.5927 1.39893Z" fill="url(#paint5_radial_76_566)"/>
<path d="M31.5927 1.39893H8.45212C5.25706 1.39893 2.66696 4.16409 2.66696 7.5751V29.1917C2.66696 32.6027 5.25706 35.3679 8.45212 35.3679H31.5927C34.7878 35.3679 37.3779 32.6027 37.3779 29.1917V7.5751C37.3779 4.16409 34.7878 1.39893 31.5927 1.39893Z" fill="url(#paint6_radial_76_566)"/>
<path d="M31.5927 1.39893H8.45212C5.25706 1.39893 2.66696 4.16409 2.66696 7.5751V29.1917C2.66696 32.6027 5.25706 35.3679 8.45212 35.3679H31.5927C34.7878 35.3679 37.3779 32.6027 37.3779 29.1917V7.5751C37.3779 4.16409 34.7878 1.39893 31.5927 1.39893Z" fill="url(#paint7_radial_76_566)"/>
<path d="M31.5927 1.39893H8.45212C5.25706 1.39893 2.66696 4.16409 2.66696 7.5751V29.1917C2.66696 32.6027 5.25706 35.3679 8.45212 35.3679H31.5927C34.7878 35.3679 37.3779 32.6027 37.3779 29.1917V7.5751C37.3779 4.16409 34.7878 1.39893 31.5927 1.39893Z" fill="url(#paint8_radial_76_566)"/>
<path d="M31.5927 1.39893H8.45212C5.25706 1.39893 2.66696 4.16409 2.66696 7.5751V29.1917C2.66696 32.6027 5.25706 35.3679 8.45212 35.3679H31.5927C34.7878 35.3679 37.3779 32.6027 37.3779 29.1917V7.5751C37.3779 4.16409 34.7878 1.39893 31.5927 1.39893Z" fill="url(#paint9_linear_76_566)"/>
<g filter="url(#filter0_f_76_566)">
<path d="M32.6326 9.61169H35.8405V28.2112C35.828 28.6567 35.6534 29.0794 35.3538 29.3898C35.0543 29.7001 34.6533 29.8737 34.2358 29.8737C33.8184 29.8737 33.4174 29.7001 33.1178 29.3898C32.8182 29.0794 32.6437 28.6567 32.6312 28.2112V9.61324L32.6326 9.61169Z" fill="url(#paint10_linear_76_566)" fill-opacity="0.75"/>
</g>
<g filter="url(#filter1_f_76_566)">
<path d="M34.8469 26.8369L25.0888 5.28206C24.951 4.97719 24.8907 4.63899 24.914 4.3014C24.9373 3.9638 25.0434 3.63869 25.2215 3.35868C25.3997 3.07867 25.6437 2.85362 25.9291 2.7061C26.2145 2.55858 26.5312 2.49378 26.8475 2.51822L30.2289 2.78071C31.0908 2.84733 31.9317 3.09654 32.7024 3.5138C33.4732 3.93106 34.1584 4.50801 34.718 5.211C35.2777 5.91398 35.7006 6.72892 35.9621 7.60826C36.2236 8.4876 36.3184 9.41373 36.2411 10.3326L34.8469 26.8369Z" fill="#D89475"/>
</g>
<path d="M31.6824 27.4068C31.6824 20.4972 25.446 18.3356 20.1121 18.3356C14.1462 18.3356 8.45212 20.7474 8.45212 27.4068C8.45212 33.5058 14.6885 38.7447 20.1121 38.7447C26.6204 38.7447 31.6824 31.5557 31.6824 27.4068Z" fill="url(#paint11_radial_76_566)"/>
<path d="M31.6824 27.4068C31.6824 20.4972 25.446 18.3356 20.1121 18.3356C14.1462 18.3356 8.45212 20.7474 8.45212 27.4068C8.45212 33.5058 14.6885 38.7447 20.1121 38.7447C26.6204 38.7447 31.6824 31.5557 31.6824 27.4068Z" fill="url(#paint12_radial_76_566)"/>
<path d="M31.6824 27.4068C31.6824 20.4972 25.446 18.3356 20.1121 18.3356C14.1462 18.3356 8.45212 20.7474 8.45212 27.4068C8.45212 33.5058 14.6885 38.7447 20.1121 38.7447C26.6204 38.7447 31.6824 31.5557 31.6824 27.4068Z" fill="url(#paint13_radial_76_566)"/>
<g filter="url(#filter2_d_76_566)">
<path d="M15.6705 31.7486L20.0224 28.2745L24.3729 31.7486V35.3679C24.3729 37.9264 22.4189 40 20.0224 40C18.8705 40.0004 17.7655 39.5129 16.9499 38.6445C16.1342 37.7761 15.6747 36.5977 15.672 35.3679V31.7486H15.6705Z" fill="url(#paint14_linear_76_566)"/>
</g>
<g filter="url(#filter3_f_76_566)">
<path d="M19.4801 28.2745V39.7344C23.1927 39.5414 24.1357 36.2372 24.1357 34.9572V31.4614C21.4007 30.8824 19.8923 29.096 19.4786 28.2761L19.4801 28.2745Z" fill="url(#paint15_linear_76_566)"/>
</g>
<g filter="url(#filter4_f_76_566)">
<path d="M20.9683 29.0311L20.0224 28.2745L19.0548 29.0466C18.485 30.5644 17.2962 30.8485 16.2534 31.077V32.4512C17.6418 32.3076 19.1763 31.7517 20.0137 29.9961C20.8569 31.7564 22.4001 32.3122 23.79 32.4512V31.0801C22.74 30.8562 21.5381 30.5659 20.9697 29.0311H20.9683Z" fill="#BD1836"/>
</g>
<path d="M15.0052 30.711C14.8135 30.711 14.6295 30.7923 14.4939 30.9371C14.3583 31.0819 14.2821 31.2783 14.2821 31.483C14.2821 31.6878 14.3583 31.8841 14.4939 32.0289C14.6295 32.1737 14.8135 32.255 15.0052 32.255V30.711ZM20.7456 25.3563C20.7456 25.1515 20.6694 24.9551 20.5338 24.8103C20.3981 24.6656 20.2142 24.5842 20.0224 24.5842C19.8306 24.5842 19.6467 24.6656 19.5111 24.8103C19.3755 24.9551 19.2993 25.1515 19.2993 25.3563H20.7456ZM15.0052 32.255C17.477 32.255 20.7456 29.9637 20.7456 25.3563H19.2993C19.2993 29.0465 16.7379 30.711 15.0052 30.711V32.255Z" fill="url(#paint16_radial_76_566)"/>
<path d="M15.0052 30.711C14.8135 30.711 14.6295 30.7923 14.4939 30.9371C14.3583 31.0819 14.2821 31.2783 14.2821 31.483C14.2821 31.6878 14.3583 31.8841 14.4939 32.0289C14.6295 32.1737 14.8135 32.255 15.0052 32.255V30.711ZM20.7456 25.3563C20.7456 25.1515 20.6694 24.9551 20.5338 24.8103C20.3981 24.6656 20.2142 24.5842 20.0224 24.5842C19.8306 24.5842 19.6467 24.6656 19.5111 24.8103C19.3755 24.9551 19.2993 25.1515 19.2993 25.3563H20.7456ZM15.0052 32.255C17.477 32.255 20.7456 29.9637 20.7456 25.3563H19.2993C19.2993 29.0465 16.7379 30.711 15.0052 30.711V32.255Z" fill="url(#paint17_linear_76_566)"/>
<path d="M25.0222 31.4831C22.9208 31.4831 20.0051 29.5067 20.0051 25.3563" stroke="url(#paint18_radial_76_566)" stroke-linecap="round"/>
<path d="M25.0222 31.4831C22.9208 31.4831 20.0051 29.5067 20.0051 25.3563" stroke="url(#paint19_linear_76_566)" stroke-linecap="round"/>
<path d="M20.7528 25.3563C20.7528 25.1515 20.6766 24.9551 20.541 24.8103C20.4054 24.6656 20.2214 24.5842 20.0297 24.5842H20.0137C19.822 24.5842 19.638 24.6656 19.5024 24.8103C19.3668 24.9551 19.2906 25.1515 19.2906 25.3563C19.2906 25.4829 19.2935 25.6079 19.2978 25.7315C19.1301 29.1608 16.6858 30.711 15.0139 30.711C14.8221 30.711 14.6382 30.7923 14.5026 30.9371C14.367 31.0819 14.2908 31.2783 14.2908 31.483C14.2908 31.6878 14.367 31.8841 14.5026 32.0289C14.6382 32.1737 14.8221 32.255 15.0139 32.255C16.7639 32.255 18.9175 31.1032 20.0224 28.7933C21.1274 31.1032 23.2795 32.255 25.0309 32.255C25.2227 32.255 25.4066 32.1737 25.5423 32.0289C25.6779 31.8841 25.7541 31.6878 25.7541 31.483C25.7541 31.2783 25.6779 31.0819 25.5423 30.9371C25.4066 30.7923 25.2227 30.711 25.0309 30.711C23.359 30.711 20.9133 29.1608 20.7456 25.7315C20.7505 25.6065 20.7529 25.4814 20.7528 25.3563Z" fill="url(#paint20_radial_76_566)"/>
<path d="M3.28308 18.9423L13.841 3.0464C14.0328 2.75755 14.1465 2.41792 14.1697 2.06469C14.1928 1.71146 14.1245 1.35824 13.9722 1.0437C13.8198 0.729153 13.5894 0.465405 13.3061 0.281321C13.0227 0.0972371 12.6974 -8.73048e-05 12.3658 5.87649e-08H6.5083C4.78219 5.87649e-08 3.12678 0.73204 1.90624 2.03508C0.685694 3.33812 0 5.10542 0 6.9482V17.826C0 19.7066 2.26344 20.4756 3.28308 18.9423Z" fill="url(#paint21_linear_76_566)"/>
<path d="M3.28308 18.9423L13.841 3.0464C14.0328 2.75755 14.1465 2.41792 14.1697 2.06469C14.1928 1.71146 14.1245 1.35824 13.9722 1.0437C13.8198 0.729153 13.5894 0.465405 13.3061 0.281321C13.0227 0.0972371 12.6974 -8.73048e-05 12.3658 5.87649e-08H6.5083C4.78219 5.87649e-08 3.12678 0.73204 1.90624 2.03508C0.685694 3.33812 0 5.10542 0 6.9482V17.826C0 19.7066 2.26344 20.4756 3.28308 18.9423Z" fill="url(#paint22_linear_76_566)"/>
<path d="M3.28308 18.9423L13.841 3.0464C14.0328 2.75755 14.1465 2.41792 14.1697 2.06469C14.1928 1.71146 14.1245 1.35824 13.9722 1.0437C13.8198 0.729153 13.5894 0.465405 13.3061 0.281321C13.0227 0.0972371 12.6974 -8.73048e-05 12.3658 5.87649e-08H6.5083C4.78219 5.87649e-08 3.12678 0.73204 1.90624 2.03508C0.685694 3.33812 0 5.10542 0 6.9482V17.826C0 19.7066 2.26344 20.4756 3.28308 18.9423Z" fill="url(#paint23_linear_76_566)"/>
<path d="M3.28308 18.9423L13.841 3.0464C14.0328 2.75755 14.1465 2.41792 14.1697 2.06469C14.1928 1.71146 14.1245 1.35824 13.9722 1.0437C13.8198 0.729153 13.5894 0.465405 13.3061 0.281321C13.0227 0.0972371 12.6974 -8.73048e-05 12.3658 5.87649e-08H6.5083C4.78219 5.87649e-08 3.12678 0.73204 1.90624 2.03508C0.685694 3.33812 0 5.10542 0 6.9482V17.826C0 19.7066 2.26344 20.4756 3.28308 18.9423Z" fill="url(#paint24_linear_76_566)"/>
<path d="M3.28308 18.9423L13.841 3.0464C14.0328 2.75755 14.1465 2.41792 14.1697 2.06469C14.1928 1.71146 14.1245 1.35824 13.9722 1.0437C13.8198 0.729153 13.5894 0.465405 13.3061 0.281321C13.0227 0.0972371 12.6974 -8.73048e-05 12.3658 5.87649e-08H6.5083C4.78219 5.87649e-08 3.12678 0.73204 1.90624 2.03508C0.685694 3.33812 0 5.10542 0 6.9482V17.826C0 19.7066 2.26344 20.4756 3.28308 18.9423Z" fill="url(#paint25_radial_76_566)"/>
<path d="M36.7169 18.9423L26.159 3.0464C25.9672 2.75755 25.8535 2.41792 25.8303 2.06469C25.8072 1.71146 25.8755 1.35824 26.0278 1.0437C26.1802 0.729153 26.4106 0.465405 26.6939 0.281321C26.9773 0.0972371 27.3026 -8.73048e-05 27.6342 5.87649e-08H33.4917C35.2178 5.87649e-08 36.8732 0.73204 38.0938 2.03508C39.3143 3.33812 40 5.10542 40 6.9482V17.826C40 19.7066 37.7351 20.4756 36.7169 18.9423Z" fill="url(#paint26_linear_76_566)"/>
<path d="M36.7169 18.9423L26.159 3.0464C25.9672 2.75755 25.8535 2.41792 25.8303 2.06469C25.8072 1.71146 25.8755 1.35824 26.0278 1.0437C26.1802 0.729153 26.4106 0.465405 26.6939 0.281321C26.9773 0.0972371 27.3026 -8.73048e-05 27.6342 5.87649e-08H33.4917C35.2178 5.87649e-08 36.8732 0.73204 38.0938 2.03508C39.3143 3.33812 40 5.10542 40 6.9482V17.826C40 19.7066 37.7351 20.4756 36.7169 18.9423Z" fill="url(#paint27_linear_76_566)"/>
<path d="M36.7169 18.9423L26.159 3.0464C25.9672 2.75755 25.8535 2.41792 25.8303 2.06469C25.8072 1.71146 25.8755 1.35824 26.0278 1.0437C26.1802 0.729153 26.4106 0.465405 26.6939 0.281321C26.9773 0.0972371 27.3026 -8.73048e-05 27.6342 5.87649e-08H33.4917C35.2178 5.87649e-08 36.8732 0.73204 38.0938 2.03508C39.3143 3.33812 40 5.10542 40 6.9482V17.826C40 19.7066 37.7351 20.4756 36.7169 18.9423Z" fill="url(#paint28_linear_76_566)"/>
<path d="M36.7169 18.9423L26.159 3.0464C25.9672 2.75755 25.8535 2.41792 25.8303 2.06469C25.8072 1.71146 25.8755 1.35824 26.0278 1.0437C26.1802 0.729153 26.4106 0.465405 26.6939 0.281321C26.9773 0.0972371 27.3026 -8.73048e-05 27.6342 5.87649e-08H33.4917C35.2178 5.87649e-08 36.8732 0.73204 38.0938 2.03508C39.3143 3.33812 40 5.10542 40 6.9482V17.826C40 19.7066 37.7351 20.4756 36.7169 18.9423Z" fill="url(#paint29_radial_76_566)"/>
<g filter="url(#filter5_f_76_566)">
<path d="M15.0052 12.5608H15.0038C14.4143 12.5608 13.9364 13.071 13.9364 13.7003V16.0179C13.9364 16.6472 14.4143 17.1574 15.0038 17.1574H15.0052C15.5947 17.1574 16.0726 16.6472 16.0726 16.0179V13.7003C16.0726 13.071 15.5947 12.5608 15.0052 12.5608Z" fill="#DC9868"/>
</g>
<path d="M15.6792 12.2227H15.6778C15.0883 12.2227 14.6104 12.7328 14.6104 13.3622V15.6798C14.6104 16.3091 15.0883 16.8193 15.6778 16.8193H15.6792C16.2687 16.8193 16.7466 16.3091 16.7466 15.6798V13.3622C16.7466 12.7328 16.2687 12.2227 15.6792 12.2227Z" fill="url(#paint30_linear_76_566)"/>
<path d="M15.6792 12.2227H15.6778C15.0883 12.2227 14.6104 12.7328 14.6104 13.3622V15.6798C14.6104 16.3091 15.0883 16.8193 15.6778 16.8193H15.6792C16.2687 16.8193 16.7466 16.3091 16.7466 15.6798V13.3622C16.7466 12.7328 16.2687 12.2227 15.6792 12.2227Z" fill="url(#paint31_linear_76_566)"/>
<g filter="url(#filter6_f_76_566)">
<path d="M16.048 12.9221V15.3833" stroke="#725F62" stroke-width="0.2" stroke-linecap="round"/>
</g>
<path d="M24.3338 12.2227H24.3324C23.7429 12.2227 23.265 12.7328 23.265 13.3622V15.6798C23.265 16.3091 23.7429 16.8193 24.3324 16.8193H24.3338C24.9233 16.8193 25.4012 16.3091 25.4012 15.6798V13.3622C25.4012 12.7328 24.9233 12.2227 24.3338 12.2227Z" fill="url(#paint32_linear_76_566)"/>
<path d="M24.3338 12.2227H24.3324C23.7429 12.2227 23.265 12.7328 23.265 13.3622V15.6798C23.265 16.3091 23.7429 16.8193 24.3324 16.8193H24.3338C24.9233 16.8193 25.4012 16.3091 25.4012 15.6798V13.3622C25.4012 12.7328 24.9233 12.2227 24.3338 12.2227Z" fill="url(#paint33_linear_76_566)"/>
<g filter="url(#filter7_f_76_566)">
<path d="M24.7026 12.9221V15.3833" stroke="#725F62" stroke-width="0.2" stroke-linecap="round"/>
</g>
<path d="M21.4702 19.9244H18.7121C18.4924 19.9243 18.2773 19.9908 18.0917 20.1164C17.9062 20.2419 17.758 20.4212 17.6644 20.6333C17.5708 20.8455 17.5357 21.0817 17.5632 21.3143C17.5907 21.547 17.6797 21.7665 17.8197 21.9471L18.796 23.2071C18.9631 23.4227 19.1738 23.5951 19.4122 23.7113C19.6506 23.8275 19.9107 23.8846 20.1727 23.8782C20.4348 23.8718 20.6921 23.8022 20.9253 23.6744C21.1585 23.5467 21.3616 23.3642 21.5193 23.1407L22.3943 21.9039C22.5241 21.7204 22.6033 21.5019 22.623 21.2729C22.6428 21.044 22.6023 20.8137 22.5061 20.6079C22.4099 20.4022 22.2618 20.2293 22.0786 20.1085C21.8953 19.9878 21.6855 19.924 21.4702 19.9244Z" fill="url(#paint34_linear_76_566)"/>
<path d="M21.4702 19.9244H18.7121C18.4924 19.9243 18.2773 19.9908 18.0917 20.1164C17.9062 20.2419 17.758 20.4212 17.6644 20.6333C17.5708 20.8455 17.5357 21.0817 17.5632 21.3143C17.5907 21.547 17.6797 21.7665 17.8197 21.9471L18.796 23.2071C18.9631 23.4227 19.1738 23.5951 19.4122 23.7113C19.6506 23.8275 19.9107 23.8846 20.1727 23.8782C20.4348 23.8718 20.6921 23.8022 20.9253 23.6744C21.1585 23.5467 21.3616 23.3642 21.5193 23.1407L22.3943 21.9039C22.5241 21.7204 22.6033 21.5019 22.623 21.2729C22.6428 21.044 22.6023 20.8137 22.5061 20.6079C22.4099 20.4022 22.2618 20.2293 22.0786 20.1085C21.8953 19.9878 21.6855 19.924 21.4702 19.9244Z" fill="url(#paint35_radial_76_566)"/>
<path d="M21.4702 19.9244H18.7121C18.4924 19.9243 18.2773 19.9908 18.0917 20.1164C17.9062 20.2419 17.758 20.4212 17.6644 20.6333C17.5708 20.8455 17.5357 21.0817 17.5632 21.3143C17.5907 21.547 17.6797 21.7665 17.8197 21.9471L18.796 23.2071C18.9631 23.4227 19.1738 23.5951 19.4122 23.7113C19.6506 23.8275 19.9107 23.8846 20.1727 23.8782C20.4348 23.8718 20.6921 23.8022 20.9253 23.6744C21.1585 23.5467 21.3616 23.3642 21.5193 23.1407L22.3943 21.9039C22.5241 21.7204 22.6033 21.5019 22.623 21.2729C22.6428 21.044 22.6023 20.8137 22.5061 20.6079C22.4099 20.4022 22.2618 20.2293 22.0786 20.1085C21.8953 19.9878 21.6855 19.924 21.4702 19.9244Z" fill="url(#paint36_linear_76_566)"/>
<g filter="url(#filter8_f_76_566)">
<path d="M22.0336 21.3511C22.1618 21.2278 22.1054 20.9378 21.9077 20.7034C21.7099 20.4689 21.4457 20.3787 21.3175 20.5019C21.1893 20.6252 21.2456 20.9152 21.4434 21.1497C21.6411 21.3841 21.9054 21.4743 22.0336 21.3511Z" fill="#786366"/>
</g>
<g filter="url(#filter9_f_76_566)">
<path d="M38.6882 4.93018V17.6685" stroke="url(#paint37_linear_76_566)" stroke-width="0.2"/>
</g>
<g filter="url(#filter10_f_76_566)">
<path d="M13.2422 2.13232L8.0674 10.0919" stroke="url(#paint38_linear_76_566)" stroke-width="0.2"/>
</g>
<defs>
<filter id="filter0_f_76_566" x="30.1312" y="7.11169" width="8.20931" height="25.262" filterUnits="userSpaceOnUse" color-interpolation-filters="sRGB">
<feFlood flood-opacity="0" result="BackgroundImageFix"/>
<feBlend mode="normal" in="SourceGraphic" in2="BackgroundImageFix" result="shape"/>
<feGaussianBlur stdDeviation="1.25" result="effect1_foregroundBlur_76_566"/>
</filter>
<filter id="filter1_f_76_566" x="22.9091" y="0.513184" width="15.3581" height="28.3237" filterUnits="userSpaceOnUse" color-interpolation-filters="sRGB">
<feFlood flood-opacity="0" result="BackgroundImageFix"/>
<feBlend mode="normal" in="SourceGraphic" in2="BackgroundImageFix" result="shape"/>
<feGaussianBlur stdDeviation="1" result="effect1_foregroundBlur_76_566"/>
</filter>
<filter id="filter2_d_76_566" x="15.1705" y="27.2745" width="9.70232" height="12.7255" filterUnits="userSpaceOnUse" color-interpolation-filters="sRGB">
<feFlood flood-opacity="0" result="BackgroundImageFix"/>
<feColorMatrix in="SourceAlpha" type="matrix" values="0 0 0 0 0 0 0 0 0 0 0 0 0 0 0 0 0 0 127 0" result="hardAlpha"/>
<feOffset dy="-0.5"/>
<feGaussianBlur stdDeviation="0.25"/>
<feComposite in2="hardAlpha" operator="out"/>
<feColorMatrix type="matrix" values="0 0 0 0 0.841667 0 0 0 0 0.164826 0 0 0 0 0.552771 0 0 0 1 0"/>
<feBlend mode="normal" in2="BackgroundImageFix" result="effect1_dropShadow_76_566"/>
<feBlend mode="normal" in="SourceGraphic" in2="effect1_dropShadow_76_566" result="shape"/>
</filter>
<filter id="filter3_f_76_566" x="19.0786" y="27.8745" width="5.45705" height="12.2598" filterUnits="userSpaceOnUse" color-interpolation-filters="sRGB">
<feFlood flood-opacity="0" result="BackgroundImageFix"/>
<feBlend mode="normal" in="SourceGraphic" in2="BackgroundImageFix" result="shape"/>
<feGaussianBlur stdDeviation="0.2" result="effect1_foregroundBlur_76_566"/>
</filter>
<filter id="filter4_f_76_566" x="15.7534" y="27.7745" width="8.53661" height="5.17664" filterUnits="userSpaceOnUse" color-interpolation-filters="sRGB">
<feFlood flood-opacity="0" result="BackgroundImageFix"/>
<feBlend mode="normal" in="SourceGraphic" in2="BackgroundImageFix" result="shape"/>
<feGaussianBlur stdDeviation="0.25" result="effect1_foregroundBlur_76_566"/>
</filter>
<filter id="filter5_f_76_566" x="13.1364" y="11.7608" width="3.73617" height="6.19668" filterUnits="userSpaceOnUse" color-interpolation-filters="sRGB">
<feFlood flood-opacity="0" result="BackgroundImageFix"/>
<feBlend mode="normal" in="SourceGraphic" in2="BackgroundImageFix" result="shape"/>
<feGaussianBlur stdDeviation="0.4" result="effect1_foregroundBlur_76_566"/>
</filter>
<filter id="filter6_f_76_566" x="15.648" y="12.5221" width="0.799997" height="3.26113" filterUnits="userSpaceOnUse" color-interpolation-filters="sRGB">
<feFlood flood-opacity="0" result="BackgroundImageFix"/>
<feBlend mode="normal" in="SourceGraphic" in2="BackgroundImageFix" result="shape"/>
<feGaussianBlur stdDeviation="0.15" result="effect1_foregroundBlur_76_566"/>
</filter>
<filter id="filter7_f_76_566" x="24.3026" y="12.5221" width="0.799997" height="3.26113" filterUnits="userSpaceOnUse" color-interpolation-filters="sRGB">
<feFlood flood-opacity="0" result="BackgroundImageFix"/>
<feBlend mode="normal" in="SourceGraphic" in2="BackgroundImageFix" result="shape"/>
<feGaussianBlur stdDeviation="0.15" result="effect1_foregroundBlur_76_566"/>
</filter>
<filter id="filter8_f_76_566" x="20.7487" y="19.9468" width="1.85357" height="1.95947" filterUnits="userSpaceOnUse" color-interpolation-filters="sRGB">
<feFlood flood-opacity="0" result="BackgroundImageFix"/>
<feBlend mode="normal" in="SourceGraphic" in2="BackgroundImageFix" result="shape"/>
<feGaussianBlur stdDeviation="0.25" result="effect1_foregroundBlur_76_566"/>
</filter>
<filter id="filter9_f_76_566" x="37.8382" y="4.18018" width="1.7" height="14.2384" filterUnits="userSpaceOnUse" color-interpolation-filters="sRGB">
<feFlood flood-opacity="0" result="BackgroundImageFix"/>
<feBlend mode="normal" in="SourceGraphic" in2="BackgroundImageFix" result="shape"/>
<feGaussianBlur stdDeviation="0.375" result="effect1_foregroundBlur_76_566"/>
</filter>
<filter id="filter10_f_76_566" x="7.48356" y="1.57776" width="6.3425" height="9.0686" filterUnits="userSpaceOnUse" color-interpolation-filters="sRGB">
<feFlood flood-opacity="0" result="BackgroundImageFix"/>
<feBlend mode="normal" in="SourceGraphic" in2="BackgroundImageFix" result="shape"/>
<feGaussianBlur stdDeviation="0.25" result="effect1_foregroundBlur_76_566"/>
</filter>
<linearGradient id="paint0_linear_76_566" x1="20.0224" y1="3.0001" x2="20.0224" y2="42.2281" gradientUnits="userSpaceOnUse">
<stop stop-color="#F7C5A1"/>
<stop offset="1" stop-color="#E28454"/>
</linearGradient>
<linearGradient id="paint1_linear_76_566" x1="1.03989" y1="35.3679" x2="7.99943" y2="35.3679" gradientUnits="userSpaceOnUse">
<stop stop-color="#BD8465"/>
<stop offset="1" stop-color="#BD8465" stop-opacity="0"/>
</linearGradient>
<linearGradient id="paint2_linear_76_566" x1="42.8911" y1="35.3679" x2="31.8632" y2="35.3679" gradientUnits="userSpaceOnUse">
<stop stop-color="#FFC390"/>
<stop offset="1" stop-color="#FFC390" stop-opacity="0"/>
</linearGradient>
<linearGradient id="paint3_linear_76_566" x1="20.0224" y1="26.5468" x2="20.0224" y2="42.2775" gradientUnits="userSpaceOnUse">
<stop stop-color="#89254F" stop-opacity="0"/>
<stop offset="1" stop-color="#98335E"/>
</linearGradient>
<linearGradient id="paint4_linear_76_566" x1="20.0224" y1="34.653" x2="20.0224" y2="35.8604" gradientUnits="userSpaceOnUse">
<stop stop-color="#E273A2" stop-opacity="0"/>
<stop offset="1" stop-color="#E273A2"/>
</linearGradient>
<radialGradient id="paint5_radial_76_566" cx="0" cy="0" r="1" gradientUnits="userSpaceOnUse" gradientTransform="translate(-0.134499 12.4589) rotate(76.9225) scale(12.384 10.4408)">
<stop stop-color="#BD8465"/>
<stop offset="1" stop-color="#BD8465" stop-opacity="0"/>
</radialGradient>
<radialGradient id="paint6_radial_76_566" cx="0" cy="0" r="1" gradientUnits="userSpaceOnUse" gradientTransform="translate(20.0224 29.2488) rotate(180) scale(15.638 12.7961)">
<stop stop-color="#AD5C30"/>
<stop offset="1" stop-color="#AD5C30" stop-opacity="0"/>
</radialGradient>
<radialGradient id="paint7_radial_76_566" cx="0" cy="0" r="1" gradientUnits="userSpaceOnUse" gradientTransform="translate(18.3955 31.7577) rotate(87.8876) scale(12.2642 10.0467)">
<stop stop-color="#AD5C30"/>
<stop offset="1" stop-color="#AD5C30" stop-opacity="0"/>
</radialGradient>
<radialGradient id="paint8_radial_76_566" cx="0" cy="0" r="1" gradientUnits="userSpaceOnUse" gradientTransform="translate(14.9604 1.39893) rotate(71.8848) scale(12.5676 27.3973)">
<stop stop-color="#FFD6B3"/>
<stop offset="1" stop-color="#FFC390" stop-opacity="0"/>
</radialGradient>
<linearGradient id="paint9_linear_76_566" x1="18.8683" y1="-0.557378" x2="18.8683" y2="3.58375" gradientUnits="userSpaceOnUse">
<stop stop-color="#FFE0C6"/>
<stop offset="1" stop-color="#FFC390" stop-opacity="0"/>
</linearGradient>
<linearGradient id="paint10_linear_76_566" x1="36.5188" y1="27.22" x2="37.1781" y2="1.00723" gradientUnits="userSpaceOnUse">
<stop stop-color="#FFC390"/>
<stop offset="1" stop-color="#FFC390" stop-opacity="0"/>
</linearGradient>
<radialGradient id="paint11_radial_76_566" cx="0" cy="0" r="1" gradientUnits="userSpaceOnUse" gradientTransform="translate(20.0673 22.3007) rotate(90) scale(17.9495 34.7561)">
<stop stop-color="#FFE3B6"/>
<stop offset="0.318" stop-color="#F5C19B"/>
<stop offset="0.896" stop-color="#BE625B"/>
</radialGradient>
<radialGradient id="paint12_radial_76_566" cx="0" cy="0" r="1" gradientUnits="userSpaceOnUse" gradientTransform="translate(23.6381 24.521) rotate(138.751) scale(20.1983 20.8887)">
<stop offset="0.595" stop-color="#BE625B" stop-opacity="0"/>
<stop offset="1" stop-color="#BE625B"/>
</radialGradient>
<radialGradient id="paint13_radial_76_566" cx="0" cy="0" r="1" gradientUnits="userSpaceOnUse" gradientTransform="translate(30.3272 19.8889) rotate(124.018) scale(7.91711 10.0992)">
<stop stop-color="#FFE9BE"/>
<stop offset="1" stop-color="#FFE9BE" stop-opacity="0"/>
</radialGradient>
<linearGradient id="paint14_linear_76_566" x1="17.4914" y1="26.451" x2="17.4914" y2="37.5481" gradientUnits="userSpaceOnUse">
<stop stop-color="#B41D4E"/>
<stop offset="1" stop-color="#C9297C"/>
</linearGradient>
<linearGradient id="paint15_linear_76_566" x1="26.2183" y1="39.3731" x2="19.4797" y2="39.5072" gradientUnits="userSpaceOnUse">
<stop offset="0.438" stop-color="#F26D9E"/>
<stop offset="0.948" stop-color="#EF6A9A" stop-opacity="0"/>
</linearGradient>
<radialGradient id="paint16_radial_76_566" cx="0" cy="0" r="1" gradientUnits="userSpaceOnUse" gradientTransform="translate(17.5131 28.8149) rotate(49.8684) scale(2.52438 5.68362)">
<stop stop-color="#261317"/>
<stop offset="0.653" stop-color="#65484A"/>
<stop offset="1" stop-color="#3C1534"/>
</radialGradient>
<linearGradient id="paint17_linear_76_566" x1="15.0052" y1="31.131" x2="17.6897" y2="30.5613" gradientUnits="userSpaceOnUse">
<stop stop-color="#4A3435"/>
<stop offset="1" stop-color="#473132" stop-opacity="0"/>
</linearGradient>
<radialGradient id="paint18_radial_76_566" cx="0" cy="0" r="1" gradientUnits="userSpaceOnUse" gradientTransform="translate(22.7223 28.5625) rotate(130.696) scale(2.72064 6.47191)">
<stop stop-color="#261317"/>
<stop offset="0.508" stop-color="#65484A"/>
<stop offset="0.902" stop-color="#3C1534"/>
</radialGradient>
<linearGradient id="paint19_linear_76_566" x1="20.2929" y1="23.8215" x2="21.0111" y2="26.2711" gradientUnits="userSpaceOnUse">
<stop stop-color="#65484A"/>
<stop offset="1" stop-color="#65484A" stop-opacity="0"/>
</linearGradient>
<radialGradient id="paint20_radial_76_566" cx="0" cy="0" r="1" gradientUnits="userSpaceOnUse" gradientTransform="translate(18.2594 26.3784) rotate(132.126) scale(5.65999 2.83212)">
<stop stop-color="#392930"/>
<stop offset="1" stop-color="#392930" stop-opacity="0"/>
</radialGradient>
<linearGradient id="paint21_linear_76_566" x1="7.93145" y1="2.93716e-07" x2="0.185917" y2="17.4057" gradientUnits="userSpaceOnUse">
<stop stop-color="#9F6C5B"/>
<stop offset="1" stop-color="#683C44"/>
</linearGradient>
<linearGradient id="paint22_linear_76_566" x1="-2.03348" y1="11.2036" x2="3.29898" y2="11.2036" gradientUnits="userSpaceOnUse">
<stop stop-color="#5F333B"/>
<stop offset="1" stop-color="#683C44" stop-opacity="0"/>
</linearGradient>
<linearGradient id="paint23_linear_76_566" x1="8.45211" y1="13.0364" x2="6.79413" y2="11.8397" gradientUnits="userSpaceOnUse">
<stop offset="0.208" stop-color="#5F333B"/>
<stop offset="1" stop-color="#683C44" stop-opacity="0"/>
</linearGradient>
<linearGradient id="paint24_linear_76_566" x1="2.35022" y1="22.0119" x2="4.49938" y2="13.291" gradientUnits="userSpaceOnUse">
<stop stop-color="#50212A"/>
<stop offset="1" stop-color="#683C44" stop-opacity="0"/>
</linearGradient>
<radialGradient id="paint25_radial_76_566" cx="0" cy="0" r="1" gradientUnits="userSpaceOnUse" gradientTransform="translate(13.1527 -4.81617) rotate(123.473) scale(13.7671 14.2443)">
<stop stop-color="#BF867C"/>
<stop offset="1" stop-color="#BF867C" stop-opacity="0"/>
</radialGradient>
<linearGradient id="paint26_linear_76_566" x1="32.0671" y1="1.08815e-07" x2="39.8142" y2="17.4056" gradientUnits="userSpaceOnUse">
<stop stop-color="#9F6C5B"/>
<stop offset="1" stop-color="#683C44"/>
</linearGradient>
<linearGradient id="paint27_linear_76_566" x1="29.7849" y1="14.5804" x2="34.6721" y2="11.4999" gradientUnits="userSpaceOnUse">
<stop stop-color="#5F333B"/>
<stop offset="1" stop-color="#683C44" stop-opacity="0"/>
</linearGradient>
<linearGradient id="paint28_linear_76_566" x1="37.6483" y1="22.0119" x2="35.5008" y2="13.2909" gradientUnits="userSpaceOnUse">
<stop stop-color="#50212A"/>
<stop offset="1" stop-color="#683C44" stop-opacity="0"/>
</linearGradient>
<radialGradient id="paint29_radial_76_566" cx="0" cy="0" r="1" gradientUnits="userSpaceOnUse" gradientTransform="translate(44.6083 10.1405) rotate(-173.495) scale(9.37081 10.5833)">
<stop stop-color="#BF867C"/>
<stop offset="1" stop-color="#BF867C" stop-opacity="0"/>
</radialGradient>
<linearGradient id="paint30_linear_76_566" x1="17.4668" y1="14.5202" x2="14.2749" y2="14.5202" gradientUnits="userSpaceOnUse">
<stop offset="0.006" stop-color="#5F5254"/>
<stop offset="1" stop-color="#2E2127"/>
</linearGradient>
<linearGradient id="paint31_linear_76_566" x1="14.2749" y1="16.9814" x2="14.2749" y2="15.6875" gradientUnits="userSpaceOnUse">
<stop offset="0.006" stop-color="#34222C"/>
<stop offset="1" stop-color="#34222C" stop-opacity="0"/>
</linearGradient>
<linearGradient id="paint32_linear_76_566" x1="26.1214" y1="14.5202" x2="22.9309" y2="14.5202" gradientUnits="userSpaceOnUse">
<stop offset="0.006" stop-color="#5F5254"/>
<stop offset="1" stop-color="#2E2127"/>
</linearGradient>
<linearGradient id="paint33_linear_76_566" x1="22.9309" y1="16.9814" x2="22.9309" y2="15.6875" gradientUnits="userSpaceOnUse">
<stop offset="0.006" stop-color="#34222C"/>
<stop offset="1" stop-color="#34222C" stop-opacity="0"/>
</linearGradient>
<linearGradient id="paint34_linear_76_566" x1="22.1007" y1="19.5029" x2="17.5756" y2="23.7416" gradientUnits="userSpaceOnUse">
<stop offset="0.191" stop-color="#5F5254"/>
<stop offset="1" stop-color="#2E2127"/>
</linearGradient>
<radialGradient id="paint35_radial_76_566" cx="0" cy="0" r="1" gradientUnits="userSpaceOnUse" gradientTransform="translate(20.564 20.9007) rotate(133.991) scale(3.28625 6.04764)">
<stop offset="0.463" stop-color="#34222C" stop-opacity="0"/>
<stop offset="0.956" stop-color="#34222C"/>
</radialGradient>
<linearGradient id="paint36_linear_76_566" x1="20.6096" y1="21.6985" x2="20.6096" y2="19.0443" gradientUnits="userSpaceOnUse">
<stop offset="0.147" stop-color="#34222C" stop-opacity="0"/>
<stop offset="0.873" stop-color="#34222C"/>
</linearGradient>
<linearGradient id="paint37_linear_76_566" x1="-nan" y1="-nan" x2="-nan" y2="-nan" gradientUnits="userSpaceOnUse">
<stop stop-color="#B3887F"/>
<stop offset="1" stop-color="#B3887F" stop-opacity="0"/>
</linearGradient>
<linearGradient id="paint38_linear_76_566" x1="13.2205" y1="3.65166" x2="7.10008" y2="12.1586" gradientUnits="userSpaceOnUse">
<stop stop-color="#D3B4AE"/>
<stop offset="1" stop-color="#D3B4AE" stop-opacity="0"/>
</linearGradient>
</defs>
</svg>
