<svg width="40" height="37" viewBox="0 0 40 37" fill="none" xmlns="http://www.w3.org/2000/svg">
<g filter="url(#filter0_d_48_751)">
<path d="M8.06629 5.68949C8.63129 5.41074 10.1163 4.82699 12.54 5.04949C16.5788 5.63449 19.675 6.10199 20.7425 6.27449L18.1463 7.83949C18.7549 8.44913 19.2776 9.1388 19.7 9.88949L20.1813 9.33699L33.7525 21.2057C34.2024 21.6 34.5135 22.1285 34.6398 22.7132C34.7661 23.2979 34.7008 23.9077 34.4537 24.4525C34.2065 24.9972 33.7906 25.448 33.2675 25.738C32.7444 26.0281 32.1417 26.1421 31.5488 26.0632C31.8249 26.6047 31.9308 27.217 31.8526 27.8198C31.7743 28.4225 31.5155 28.9875 31.1103 29.4404C30.705 29.8934 30.1722 30.2132 29.5819 30.3579C28.9916 30.5025 28.3713 30.4651 27.8025 30.2507C27.786 30.7754 27.6326 31.2867 27.3576 31.7339C27.0826 32.181 26.6955 32.5486 26.2347 32.8C25.7739 33.0515 25.2554 33.1782 24.7306 33.1676C24.2057 33.157 23.6928 33.0094 23.2425 32.7395C23.14 33.2682 22.9 33.7606 22.5466 34.1671C22.1932 34.5735 21.739 34.8796 21.2296 35.0547C20.7203 35.2297 20.1738 35.2674 19.6452 35.164C19.1166 35.0606 18.6247 34.8198 18.2188 34.4657L7.16379 24.8282C6.80814 24.5188 6.52846 24.1317 6.34638 23.6969C6.16431 23.2621 6.08472 22.7912 6.11379 22.3207C4.69119 21.3465 3.56199 20.0019 2.84828 18.4324C2.13457 16.8628 1.86352 15.128 2.06443 13.4156C2.26534 11.7031 2.93058 10.0781 3.9882 8.71641C5.04582 7.35467 6.45683 6.30797 8.06629 5.68949Z" fill="url(#paint0_linear_48_751)"/>
<path d="M8.06629 5.68949C8.63129 5.41074 10.1163 4.82699 12.54 5.04949C16.5788 5.63449 19.675 6.10199 20.7425 6.27449L18.1463 7.83949C18.7549 8.44913 19.2776 9.1388 19.7 9.88949L20.1813 9.33699L33.7525 21.2057C34.2024 21.6 34.5135 22.1285 34.6398 22.7132C34.7661 23.2979 34.7008 23.9077 34.4537 24.4525C34.2065 24.9972 33.7906 25.448 33.2675 25.738C32.7444 26.0281 32.1417 26.1421 31.5488 26.0632C31.8249 26.6047 31.9308 27.217 31.8526 27.8198C31.7743 28.4225 31.5155 28.9875 31.1103 29.4404C30.705 29.8934 30.1722 30.2132 29.5819 30.3579C28.9916 30.5025 28.3713 30.4651 27.8025 30.2507C27.786 30.7754 27.6326 31.2867 27.3576 31.7339C27.0826 32.181 26.6955 32.5486 26.2347 32.8C25.7739 33.0515 25.2554 33.1782 24.7306 33.1676C24.2057 33.157 23.6928 33.0094 23.2425 32.7395C23.14 33.2682 22.9 33.7606 22.5466 34.1671C22.1932 34.5735 21.739 34.8796 21.2296 35.0547C20.7203 35.2297 20.1738 35.2674 19.6452 35.164C19.1166 35.0606 18.6247 34.8198 18.2188 34.4657L7.16379 24.8282C6.80814 24.5188 6.52846 24.1317 6.34638 23.6969C6.16431 23.2621 6.08472 22.7912 6.11379 22.3207C4.69119 21.3465 3.56199 20.0019 2.84828 18.4324C2.13457 16.8628 1.86352 15.128 2.06443 13.4156C2.26534 11.7031 2.93058 10.0781 3.9882 8.71641C5.04582 7.35467 6.45683 6.30797 8.06629 5.68949Z" fill="url(#paint1_radial_48_751)"/>
</g>
<path d="M8.06629 5.68949C8.63129 5.41074 10.1163 4.82699 12.54 5.04949C16.5788 5.63449 19.675 6.10199 20.7425 6.27449L18.1463 7.83949C18.7549 8.44913 19.2776 9.1388 19.7 9.88949L20.1813 9.33699L33.7525 21.2057C34.2024 21.6 34.5135 22.1285 34.6398 22.7132C34.7661 23.2979 34.7008 23.9077 34.4537 24.4525C34.2065 24.9972 33.7906 25.448 33.2675 25.738C32.7444 26.0281 32.1417 26.1421 31.5488 26.0632C31.8249 26.6047 31.9308 27.217 31.8526 27.8198C31.7743 28.4225 31.5155 28.9875 31.1103 29.4404C30.705 29.8934 30.1722 30.2132 29.5819 30.3579C28.9916 30.5025 28.3713 30.4651 27.8025 30.2507C27.786 30.7754 27.6326 31.2867 27.3576 31.7339C27.0826 32.181 26.6955 32.5486 26.2347 32.8C25.7739 33.0515 25.2554 33.1782 24.7306 33.1676C24.2057 33.157 23.6928 33.0094 23.2425 32.7395C23.14 33.2682 22.9 33.7606 22.5466 34.1671C22.1932 34.5735 21.739 34.8796 21.2296 35.0547C20.7203 35.2297 20.1738 35.2674 19.6452 35.164C19.1166 35.0606 18.6247 34.8198 18.2188 34.4657L7.16379 24.8282C6.80814 24.5188 6.52846 24.1317 6.34638 23.6969C6.16431 23.2621 6.08472 22.7912 6.11379 22.3207C4.69119 21.3465 3.56199 20.0019 2.84828 18.4324C2.13457 16.8628 1.86352 15.128 2.06443 13.4156C2.26534 11.7031 2.93058 10.0781 3.9882 8.71641C5.04582 7.35467 6.45683 6.30797 8.06629 5.68949Z" fill="url(#paint2_radial_48_751)"/>
<path d="M8.06629 5.68949C8.63129 5.41074 10.1163 4.82699 12.54 5.04949C16.5788 5.63449 19.675 6.10199 20.7425 6.27449L18.1463 7.83949C18.7549 8.44913 19.2776 9.1388 19.7 9.88949L20.1813 9.33699L33.7525 21.2057C34.2024 21.6 34.5135 22.1285 34.6398 22.7132C34.7661 23.2979 34.7008 23.9077 34.4537 24.4525C34.2065 24.9972 33.7906 25.448 33.2675 25.738C32.7444 26.0281 32.1417 26.1421 31.5488 26.0632C31.8249 26.6047 31.9308 27.217 31.8526 27.8198C31.7743 28.4225 31.5155 28.9875 31.1103 29.4404C30.705 29.8934 30.1722 30.2132 29.5819 30.3579C28.9916 30.5025 28.3713 30.4651 27.8025 30.2507C27.786 30.7754 27.6326 31.2867 27.3576 31.7339C27.0826 32.181 26.6955 32.5486 26.2347 32.8C25.7739 33.0515 25.2554 33.1782 24.7306 33.1676C24.2057 33.157 23.6928 33.0094 23.2425 32.7395C23.14 33.2682 22.9 33.7606 22.5466 34.1671C22.1932 34.5735 21.739 34.8796 21.2296 35.0547C20.7203 35.2297 20.1738 35.2674 19.6452 35.164C19.1166 35.0606 18.6247 34.8198 18.2188 34.4657L7.16379 24.8282C6.80814 24.5188 6.52846 24.1317 6.34638 23.6969C6.16431 23.2621 6.08472 22.7912 6.11379 22.3207C4.69119 21.3465 3.56199 20.0019 2.84828 18.4324C2.13457 16.8628 1.86352 15.128 2.06443 13.4156C2.26534 11.7031 2.93058 10.0781 3.9882 8.71641C5.04582 7.35467 6.45683 6.30797 8.06629 5.68949Z" fill="url(#paint3_radial_48_751)"/>
<path d="M8.06629 5.68949C8.63129 5.41074 10.1163 4.82699 12.54 5.04949C16.5788 5.63449 19.675 6.10199 20.7425 6.27449L18.1463 7.83949C18.7549 8.44913 19.2776 9.1388 19.7 9.88949L20.1813 9.33699L33.7525 21.2057C34.2024 21.6 34.5135 22.1285 34.6398 22.7132C34.7661 23.2979 34.7008 23.9077 34.4537 24.4525C34.2065 24.9972 33.7906 25.448 33.2675 25.738C32.7444 26.0281 32.1417 26.1421 31.5488 26.0632C31.8249 26.6047 31.9308 27.217 31.8526 27.8198C31.7743 28.4225 31.5155 28.9875 31.1103 29.4404C30.705 29.8934 30.1722 30.2132 29.5819 30.3579C28.9916 30.5025 28.3713 30.4651 27.8025 30.2507C27.786 30.7754 27.6326 31.2867 27.3576 31.7339C27.0826 32.181 26.6955 32.5486 26.2347 32.8C25.7739 33.0515 25.2554 33.1782 24.7306 33.1676C24.2057 33.157 23.6928 33.0094 23.2425 32.7395C23.14 33.2682 22.9 33.7606 22.5466 34.1671C22.1932 34.5735 21.739 34.8796 21.2296 35.0547C20.7203 35.2297 20.1738 35.2674 19.6452 35.164C19.1166 35.0606 18.6247 34.8198 18.2188 34.4657L7.16379 24.8282C6.80814 24.5188 6.52846 24.1317 6.34638 23.6969C6.16431 23.2621 6.08472 22.7912 6.11379 22.3207C4.69119 21.3465 3.56199 20.0019 2.84828 18.4324C2.13457 16.8628 1.86352 15.128 2.06443 13.4156C2.26534 11.7031 2.93058 10.0781 3.9882 8.71641C5.04582 7.35467 6.45683 6.30797 8.06629 5.68949Z" fill="url(#paint4_radial_48_751)"/>
<path d="M8.06629 5.68949C8.63129 5.41074 10.1163 4.82699 12.54 5.04949C16.5788 5.63449 19.675 6.10199 20.7425 6.27449L18.1463 7.83949C18.7549 8.44913 19.2776 9.1388 19.7 9.88949L20.1813 9.33699L33.7525 21.2057C34.2024 21.6 34.5135 22.1285 34.6398 22.7132C34.7661 23.2979 34.7008 23.9077 34.4537 24.4525C34.2065 24.9972 33.7906 25.448 33.2675 25.738C32.7444 26.0281 32.1417 26.1421 31.5488 26.0632C31.8249 26.6047 31.9308 27.217 31.8526 27.8198C31.7743 28.4225 31.5155 28.9875 31.1103 29.4404C30.705 29.8934 30.1722 30.2132 29.5819 30.3579C28.9916 30.5025 28.3713 30.4651 27.8025 30.2507C27.786 30.7754 27.6326 31.2867 27.3576 31.7339C27.0826 32.181 26.6955 32.5486 26.2347 32.8C25.7739 33.0515 25.2554 33.1782 24.7306 33.1676C24.2057 33.157 23.6928 33.0094 23.2425 32.7395C23.14 33.2682 22.9 33.7606 22.5466 34.1671C22.1932 34.5735 21.739 34.8796 21.2296 35.0547C20.7203 35.2297 20.1738 35.2674 19.6452 35.164C19.1166 35.0606 18.6247 34.8198 18.2188 34.4657L7.16379 24.8282C6.80814 24.5188 6.52846 24.1317 6.34638 23.6969C6.16431 23.2621 6.08472 22.7912 6.11379 22.3207C4.69119 21.3465 3.56199 20.0019 2.84828 18.4324C2.13457 16.8628 1.86352 15.128 2.06443 13.4156C2.26534 11.7031 2.93058 10.0781 3.9882 8.71641C5.04582 7.35467 6.45683 6.30797 8.06629 5.68949Z" fill="url(#paint5_radial_48_751)"/>
<path d="M8.06629 5.68949C8.63129 5.41074 10.1163 4.82699 12.54 5.04949C16.5788 5.63449 19.675 6.10199 20.7425 6.27449L18.1463 7.83949C18.7549 8.44913 19.2776 9.1388 19.7 9.88949L20.1813 9.33699L33.7525 21.2057C34.2024 21.6 34.5135 22.1285 34.6398 22.7132C34.7661 23.2979 34.7008 23.9077 34.4537 24.4525C34.2065 24.9972 33.7906 25.448 33.2675 25.738C32.7444 26.0281 32.1417 26.1421 31.5488 26.0632C31.8249 26.6047 31.9308 27.217 31.8526 27.8198C31.7743 28.4225 31.5155 28.9875 31.1103 29.4404C30.705 29.8934 30.1722 30.2132 29.5819 30.3579C28.9916 30.5025 28.3713 30.4651 27.8025 30.2507C27.786 30.7754 27.6326 31.2867 27.3576 31.7339C27.0826 32.181 26.6955 32.5486 26.2347 32.8C25.7739 33.0515 25.2554 33.1782 24.7306 33.1676C24.2057 33.157 23.6928 33.0094 23.2425 32.7395C23.14 33.2682 22.9 33.7606 22.5466 34.1671C22.1932 34.5735 21.739 34.8796 21.2296 35.0547C20.7203 35.2297 20.1738 35.2674 19.6452 35.164C19.1166 35.0606 18.6247 34.8198 18.2188 34.4657L7.16379 24.8282C6.80814 24.5188 6.52846 24.1317 6.34638 23.6969C6.16431 23.2621 6.08472 22.7912 6.11379 22.3207C4.69119 21.3465 3.56199 20.0019 2.84828 18.4324C2.13457 16.8628 1.86352 15.128 2.06443 13.4156C2.26534 11.7031 2.93058 10.0781 3.9882 8.71641C5.04582 7.35467 6.45683 6.30797 8.06629 5.68949Z" fill="url(#paint6_radial_48_751)"/>
<g filter="url(#filter1_f_48_751)">
<path fill-rule="evenodd" clip-rule="evenodd" d="M5.4013 20.4171C4.96996 20.8551 4.71677 21.4378 4.6909 22.052C4.66503 22.6662 4.86832 23.2681 5.2613 23.7409C5.55388 24.097 5.93587 24.3689 6.36813 24.5288C6.8004 24.6887 7.2674 24.7308 7.72129 24.6509C7.50091 25.1047 7.42763 25.6159 7.51165 26.1134C7.59568 26.6108 7.83283 27.0696 8.19004 27.4259C8.88004 28.1134 9.9113 28.3621 10.785 28.0821C10.635 28.8271 10.9888 29.6734 11.5938 30.2796C12.1913 30.8759 13.1288 31.0271 13.8738 30.7896C13.78 31.4671 13.9825 32.2021 14.4313 32.7409C15.2688 33.7484 16.8975 33.9996 17.9313 33.1359L19.61 31.4021C20.465 30.5634 20.3975 28.9496 19.61 28.0471C19.0763 27.4334 18.3175 27.1621 17.5975 27.2659C18.0838 26.4171 17.8913 25.2809 17.285 24.5871C16.6725 23.8871 15.8375 23.6159 15.0975 23.7746C15.2913 23.31 15.343 22.7984 15.246 22.3044C15.149 21.8105 14.9076 21.3564 14.5525 20.9996C13.7688 20.2309 12.5675 20.1171 11.64 20.6246C11.7443 20.0967 11.6755 19.5492 11.444 19.0634C11.2125 18.5776 10.8306 18.1794 10.3549 17.9278C9.87926 17.6762 9.33514 17.5847 8.80331 17.6667C8.27148 17.7488 7.78027 18.0001 7.40254 18.3834L5.4013 20.4171Z" fill="#FFB21A"/>
</g>
<g filter="url(#filter2_f_48_751)">
<path d="M18.3525 29.9158L21.3675 32.6108" stroke="url(#paint7_linear_48_751)" stroke-width="1.5" stroke-linecap="round"/>
</g>
<g filter="url(#filter3_f_48_751)">
<path d="M16.0588 7.74829C15.3171 7.95585 14.5855 8.19778 13.8663 8.47329L13.8688 8.47954C13.4824 8.65915 13.1551 8.94487 12.9249 9.3034C12.6948 9.66193 12.5713 10.0785 12.5688 10.5045C12.5688 11.7495 13.6025 12.757 14.8763 12.757C15.1863 12.757 15.4825 12.697 15.7525 12.5883C15.9713 12.5208 16.2025 12.447 16.4438 12.3708H16.4475L17.0925 12.1633C21.465 10.7558 19.2925 10.2608 16.0588 7.74829Z" fill="#D77A15"/>
</g>
<g filter="url(#filter4_f_48_751)">
<path d="M22.1988 13.127L32.9013 22.6582" stroke="url(#paint8_linear_48_751)" stroke-width="1.5" stroke-linecap="round"/>
</g>
<g filter="url(#filter5_f_48_751)">
<path d="M27.2363 24.5557L30.2525 27.2507" stroke="url(#paint9_linear_48_751)" stroke-width="1.5" stroke-linecap="round"/>
</g>
<g filter="url(#filter6_f_48_751)">
<path d="M23.17 27.7671L26.185 30.4633" stroke="url(#paint10_linear_48_751)" stroke-width="1.5" stroke-linecap="round"/>
</g>
<path d="M3.80755 24.1757C3.37169 23.6517 3.14618 22.9843 3.17482 22.3033C3.20347 21.6223 3.48422 20.9763 3.96254 20.4907L6.1813 18.237C6.43864 17.977 6.74483 17.7705 7.08226 17.6293C7.41969 17.4882 7.78171 17.4151 8.14748 17.4143C8.51326 17.4135 8.87558 17.4851 9.2136 17.6248C9.55163 17.7646 9.85869 17.9698 10.1171 18.2286C10.3756 18.4875 10.5803 18.7949 10.7195 19.1331C10.8587 19.4714 10.9297 19.8338 10.9283 20.1996C10.927 20.5654 10.8533 20.9273 10.7116 21.2645C10.5699 21.6017 10.3629 21.9075 10.1025 22.1645L7.8513 24.497C6.7038 25.622 4.83505 25.4107 3.80755 24.1757Z" fill="url(#paint11_linear_48_751)"/>
<path d="M3.80755 24.1757C3.37169 23.6517 3.14618 22.9843 3.17482 22.3033C3.20347 21.6223 3.48422 20.9763 3.96254 20.4907L6.1813 18.237C6.43864 17.977 6.74483 17.7705 7.08226 17.6293C7.41969 17.4882 7.78171 17.4151 8.14748 17.4143C8.51326 17.4135 8.87558 17.4851 9.2136 17.6248C9.55163 17.7646 9.85869 17.9698 10.1171 18.2286C10.3756 18.4875 10.5803 18.7949 10.7195 19.1331C10.8587 19.4714 10.9297 19.8338 10.9283 20.1996C10.927 20.5654 10.8533 20.9273 10.7116 21.2645C10.5699 21.6017 10.3629 21.9075 10.1025 22.1645L7.8513 24.497C6.7038 25.622 4.83505 25.4107 3.80755 24.1757Z" fill="url(#paint12_linear_48_751)"/>
<path d="M3.80755 24.1757C3.37169 23.6517 3.14618 22.9843 3.17482 22.3033C3.20347 21.6223 3.48422 20.9763 3.96254 20.4907L6.1813 18.237C6.43864 17.977 6.74483 17.7705 7.08226 17.6293C7.41969 17.4882 7.78171 17.4151 8.14748 17.4143C8.51326 17.4135 8.87558 17.4851 9.2136 17.6248C9.55163 17.7646 9.85869 17.9698 10.1171 18.2286C10.3756 18.4875 10.5803 18.7949 10.7195 19.1331C10.8587 19.4714 10.9297 19.8338 10.9283 20.1996C10.927 20.5654 10.8533 20.9273 10.7116 21.2645C10.5699 21.6017 10.3629 21.9075 10.1025 22.1645L7.8513 24.497C6.7038 25.622 4.83505 25.4107 3.80755 24.1757Z" fill="url(#paint13_radial_48_751)"/>
<path d="M3.80755 24.1757C3.37169 23.6517 3.14618 22.9843 3.17482 22.3033C3.20347 21.6223 3.48422 20.9763 3.96254 20.4907L6.1813 18.237C6.43864 17.977 6.74483 17.7705 7.08226 17.6293C7.41969 17.4882 7.78171 17.4151 8.14748 17.4143C8.51326 17.4135 8.87558 17.4851 9.2136 17.6248C9.55163 17.7646 9.85869 17.9698 10.1171 18.2286C10.3756 18.4875 10.5803 18.7949 10.7195 19.1331C10.8587 19.4714 10.9297 19.8338 10.9283 20.1996C10.927 20.5654 10.8533 20.9273 10.7116 21.2645C10.5699 21.6017 10.3629 21.9075 10.1025 22.1645L7.8513 24.497C6.7038 25.622 4.83505 25.4107 3.80755 24.1757Z" fill="url(#paint14_radial_48_751)"/>
<path d="M7.05505 28.2646C6.5532 27.7643 6.26928 27.086 6.26506 26.3774C6.26085 25.6687 6.53669 24.9871 7.03255 24.4808L10.2425 21.2058C11.2875 20.1396 13.0438 20.0921 14.11 21.1371C15.1788 22.1871 15.2125 23.9858 14.1563 25.0496L10.9238 28.3833C9.8763 29.4371 8.1063 29.3108 7.0538 28.2621L7.05505 28.2646Z" fill="url(#paint15_linear_48_751)"/>
<path d="M7.05505 28.2646C6.5532 27.7643 6.26928 27.086 6.26506 26.3774C6.26085 25.6687 6.53669 24.9871 7.03255 24.4808L10.2425 21.2058C11.2875 20.1396 13.0438 20.0921 14.11 21.1371C15.1788 22.1871 15.2125 23.9858 14.1563 25.0496L10.9238 28.3833C9.8763 29.4371 8.1063 29.3108 7.0538 28.2621L7.05505 28.2646Z" fill="url(#paint16_linear_48_751)"/>
<path d="M7.05505 28.2646C6.5532 27.7643 6.26928 27.086 6.26506 26.3774C6.26085 25.6687 6.53669 24.9871 7.03255 24.4808L10.2425 21.2058C11.2875 20.1396 13.0438 20.0921 14.11 21.1371C15.1788 22.1871 15.2125 23.9858 14.1563 25.0496L10.9238 28.3833C9.8763 29.4371 8.1063 29.3108 7.0538 28.2621L7.05505 28.2646Z" fill="url(#paint17_radial_48_751)"/>
<path d="M7.05505 28.2646C6.5532 27.7643 6.26928 27.086 6.26506 26.3774C6.26085 25.6687 6.53669 24.9871 7.03255 24.4808L10.2425 21.2058C11.2875 20.1396 13.0438 20.0921 14.11 21.1371C15.1788 22.1871 15.2125 23.9858 14.1563 25.0496L10.9238 28.3833C9.8763 29.4371 8.1063 29.3108 7.0538 28.2621L7.05505 28.2646Z" fill="url(#paint18_radial_48_751)"/>
<path d="M13.9738 34.1558C13.1575 33.1746 13.0788 31.6083 13.9738 30.6983L16.1213 28.7858C17.1463 27.7446 18.7588 27.8483 19.7175 28.9508C20.59 29.9508 20.665 31.7408 19.7175 32.6708L17.8575 34.5958C16.71 35.5521 14.9038 35.2733 13.9738 34.1558Z" fill="url(#paint19_linear_48_751)"/>
<path d="M13.9738 34.1558C13.1575 33.1746 13.0788 31.6083 13.9738 30.6983L16.1213 28.7858C17.1463 27.7446 18.7588 27.8483 19.7175 28.9508C20.59 29.9508 20.665 31.7408 19.7175 32.6708L17.8575 34.5958C16.71 35.5521 14.9038 35.2733 13.9738 34.1558Z" fill="url(#paint20_linear_48_751)"/>
<path d="M13.9738 34.1558C13.1575 33.1746 13.0788 31.6083 13.9738 30.6983L16.1213 28.7858C17.1463 27.7446 18.7588 27.8483 19.7175 28.9508C20.59 29.9508 20.665 31.7408 19.7175 32.6708L17.8575 34.5958C16.71 35.5521 14.9038 35.2733 13.9738 34.1558Z" fill="url(#paint21_radial_48_751)"/>
<path d="M13.9738 34.1558C13.1575 33.1746 13.0788 31.6083 13.9738 30.6983L16.1213 28.7858C17.1463 27.7446 18.7588 27.8483 19.7175 28.9508C20.59 29.9508 20.665 31.7408 19.7175 32.6708L17.8575 34.5958C16.71 35.5521 14.9038 35.2733 13.9738 34.1558Z" fill="url(#paint22_radial_48_751)"/>
<path d="M10.8288 31.4271C9.88254 30.4808 9.49129 29.0046 10.4363 28.0596L13.6325 24.8046C14.5788 23.8596 16.13 23.9596 17.14 25.1146C17.9275 26.0158 18.085 27.5933 17.14 28.5396L14.2525 31.4271C13.4875 32.3071 11.7738 32.3721 10.8275 31.4271H10.8288Z" fill="url(#paint23_linear_48_751)"/>
<path d="M10.8288 31.4271C9.88254 30.4808 9.49129 29.0046 10.4363 28.0596L13.6325 24.8046C14.5788 23.8596 16.13 23.9596 17.14 25.1146C17.9275 26.0158 18.085 27.5933 17.14 28.5396L14.2525 31.4271C13.4875 32.3071 11.7738 32.3721 10.8275 31.4271H10.8288Z" fill="url(#paint24_linear_48_751)"/>
<path d="M10.8288 31.4271C9.88254 30.4808 9.49129 29.0046 10.4363 28.0596L13.6325 24.8046C14.5788 23.8596 16.13 23.9596 17.14 25.1146C17.9275 26.0158 18.085 27.5933 17.14 28.5396L14.2525 31.4271C13.4875 32.3071 11.7738 32.3721 10.8275 31.4271H10.8288Z" fill="url(#paint25_radial_48_751)"/>
<path d="M10.8288 31.4271C9.88254 30.4808 9.49129 29.0046 10.4363 28.0596L13.6325 24.8046C14.5788 23.8596 16.13 23.9596 17.14 25.1146C17.9275 26.0158 18.085 27.5933 17.14 28.5396L14.2525 31.4271C13.4875 32.3071 11.7738 32.3721 10.8275 31.4271H10.8288Z" fill="url(#paint26_radial_48_751)"/>
<g filter="url(#filter7_d_48_751)">
<path d="M14.7075 7.64688L14.7113 7.65438C14.0931 7.9478 13.6144 8.4715 13.3775 9.11344C13.1405 9.75537 13.1643 10.4645 13.4436 11.0892C13.7229 11.7138 14.2357 12.2043 14.8721 12.4557C15.5085 12.7071 16.218 12.6995 16.8488 12.4344L17.6338 12.1806L17.6375 12.1794C18.83 11.7931 20.5863 11.1844 21.5438 10.9944C21.8413 10.9344 22.1338 11.0444 22.3625 11.2444L33.7288 21.1956C35.7863 19.3881 37.16 16.9269 37.16 14.0731C37.16 9.09313 33.2175 5.05688 28.0738 5.05688C24.5463 5.23188 18.945 5.96813 14.7075 7.64688Z" fill="#FBB439"/>
<path d="M14.7075 7.64688L14.7113 7.65438C14.0931 7.9478 13.6144 8.4715 13.3775 9.11344C13.1405 9.75537 13.1643 10.4645 13.4436 11.0892C13.7229 11.7138 14.2357 12.2043 14.8721 12.4557C15.5085 12.7071 16.218 12.6995 16.8488 12.4344L17.6338 12.1806L17.6375 12.1794C18.83 11.7931 20.5863 11.1844 21.5438 10.9944C21.8413 10.9344 22.1338 11.0444 22.3625 11.2444L33.7288 21.1956C35.7863 19.3881 37.16 16.9269 37.16 14.0731C37.16 9.09313 33.2175 5.05688 28.0738 5.05688C24.5463 5.23188 18.945 5.96813 14.7075 7.64688Z" fill="url(#paint27_radial_48_751)"/>
<path d="M14.7075 7.64688L14.7113 7.65438C14.0931 7.9478 13.6144 8.4715 13.3775 9.11344C13.1405 9.75537 13.1643 10.4645 13.4436 11.0892C13.7229 11.7138 14.2357 12.2043 14.8721 12.4557C15.5085 12.7071 16.218 12.6995 16.8488 12.4344L17.6338 12.1806L17.6375 12.1794C18.83 11.7931 20.5863 11.1844 21.5438 10.9944C21.8413 10.9344 22.1338 11.0444 22.3625 11.2444L33.7288 21.1956C35.7863 19.3881 37.16 16.9269 37.16 14.0731C37.16 9.09313 33.2175 5.05688 28.0738 5.05688C24.5463 5.23188 18.945 5.96813 14.7075 7.64688Z" fill="url(#paint28_radial_48_751)"/>
<path d="M14.7075 7.64688L14.7113 7.65438C14.0931 7.9478 13.6144 8.4715 13.3775 9.11344C13.1405 9.75537 13.1643 10.4645 13.4436 11.0892C13.7229 11.7138 14.2357 12.2043 14.8721 12.4557C15.5085 12.7071 16.218 12.6995 16.8488 12.4344L17.6338 12.1806L17.6375 12.1794C18.83 11.7931 20.5863 11.1844 21.5438 10.9944C21.8413 10.9344 22.1338 11.0444 22.3625 11.2444L33.7288 21.1956C35.7863 19.3881 37.16 16.9269 37.16 14.0731C37.16 9.09313 33.2175 5.05688 28.0738 5.05688C24.5463 5.23188 18.945 5.96813 14.7075 7.64688Z" fill="url(#paint29_radial_48_751)"/>
</g>
<path d="M14.7075 7.64688L14.7113 7.65438C14.0931 7.9478 13.6144 8.4715 13.3775 9.11344C13.1405 9.75537 13.1643 10.4645 13.4436 11.0892C13.7229 11.7138 14.2357 12.2043 14.8721 12.4557C15.5085 12.7071 16.218 12.6995 16.8488 12.4344L17.6338 12.1806L17.6375 12.1794C18.83 11.7931 20.5863 11.1844 21.5438 10.9944C21.8413 10.9344 22.1338 11.0444 22.3625 11.2444L33.7288 21.1956C35.7863 19.3881 37.16 16.9269 37.16 14.0731C37.16 9.09313 33.2175 5.05688 28.0738 5.05688C24.5463 5.23188 18.945 5.96813 14.7075 7.64688Z" fill="url(#paint30_radial_48_751)"/>
<g filter="url(#filter8_f_48_751)">
<path d="M22.9688 9.48704C21.3375 9.88704 19.3513 10.4945 17.9 10.972C17.6972 11.0395 17.4828 11.0656 17.2697 11.0486C17.0566 11.0316 16.8491 10.972 16.6595 10.8732C16.4699 10.7745 16.3021 10.6386 16.166 10.4737C16.03 10.3088 15.9285 10.1182 15.8675 9.91329C15.65 9.15954 16.0325 8.36079 16.7738 8.10079C18.6363 7.45079 20.9063 6.86204 22.5313 6.53079C23.31 6.37204 24.0375 6.90329 24.1775 7.68579C24.3238 8.50454 23.7763 9.28954 22.9688 9.48579V9.48704Z" fill="#FFE746"/>
</g>
<defs>
<filter id="filter0_d_48_751" x="0.5" y="0.5" width="38.7026" height="36.2209" filterUnits="userSpaceOnUse" color-interpolation-filters="sRGB">
<feFlood flood-opacity="0" result="BackgroundImageFix"/>
<feColorMatrix in="SourceAlpha" type="matrix" values="0 0 0 0 0 0 0 0 0 0 0 0 0 0 0 0 0 0 127 0" result="hardAlpha"/>
<feOffset dx="1.5" dy="-1.5"/>
<feGaussianBlur stdDeviation="1.5"/>
<feComposite in2="hardAlpha" operator="out"/>
<feColorMatrix type="matrix" values="0 0 0 0 0.945098 0 0 0 0 0.615686 0 0 0 0 0.156863 0 0 0 1 0"/>
<feBlend mode="normal" in2="BackgroundImageFix" result="effect1_dropShadow_48_751"/>
<feBlend mode="normal" in="SourceGraphic" in2="effect1_dropShadow_48_751" result="shape"/>
</filter>
<filter id="filter1_f_48_751" x="3.93871" y="16.8875" width="17.0375" height="17.5234" filterUnits="userSpaceOnUse" color-interpolation-filters="sRGB">
<feFlood flood-opacity="0" result="BackgroundImageFix"/>
<feBlend mode="normal" in="SourceGraphic" in2="BackgroundImageFix" result="shape"/>
<feGaussianBlur stdDeviation="0.375" result="effect1_foregroundBlur_48_751"/>
</filter>
<filter id="filter2_f_48_751" x="16.1025" y="27.6658" width="7.515" height="7.19507" filterUnits="userSpaceOnUse" color-interpolation-filters="sRGB">
<feFlood flood-opacity="0" result="BackgroundImageFix"/>
<feBlend mode="normal" in="SourceGraphic" in2="BackgroundImageFix" result="shape"/>
<feGaussianBlur stdDeviation="0.75" result="effect1_foregroundBlur_48_751"/>
</filter>
<filter id="filter3_f_48_751" x="11.7088" y="6.88829" width="8.70015" height="6.72879" filterUnits="userSpaceOnUse" color-interpolation-filters="sRGB">
<feFlood flood-opacity="0" result="BackgroundImageFix"/>
<feBlend mode="normal" in="SourceGraphic" in2="BackgroundImageFix" result="shape"/>
<feGaussianBlur stdDeviation="0.43" result="effect1_foregroundBlur_48_751"/>
</filter>
<filter id="filter4_f_48_751" x="19.9488" y="10.877" width="15.2025" height="14.0312" filterUnits="userSpaceOnUse" color-interpolation-filters="sRGB">
<feFlood flood-opacity="0" result="BackgroundImageFix"/>
<feBlend mode="normal" in="SourceGraphic" in2="BackgroundImageFix" result="shape"/>
<feGaussianBlur stdDeviation="0.75" result="effect1_foregroundBlur_48_751"/>
</filter>
<filter id="filter5_f_48_751" x="24.9863" y="22.3057" width="7.51625" height="7.19507" filterUnits="userSpaceOnUse" color-interpolation-filters="sRGB">
<feFlood flood-opacity="0" result="BackgroundImageFix"/>
<feBlend mode="normal" in="SourceGraphic" in2="BackgroundImageFix" result="shape"/>
<feGaussianBlur stdDeviation="0.75" result="effect1_foregroundBlur_48_751"/>
</filter>
<filter id="filter6_f_48_751" x="20.92" y="25.5171" width="7.51501" height="7.19629" filterUnits="userSpaceOnUse" color-interpolation-filters="sRGB">
<feFlood flood-opacity="0" result="BackgroundImageFix"/>
<feBlend mode="normal" in="SourceGraphic" in2="BackgroundImageFix" result="shape"/>
<feGaussianBlur stdDeviation="0.75" result="effect1_foregroundBlur_48_751"/>
</filter>
<filter id="filter7_d_48_751" x="12.2155" y="4.20688" width="25.9445" height="18.1387" filterUnits="userSpaceOnUse" color-interpolation-filters="sRGB">
<feFlood flood-opacity="0" result="BackgroundImageFix"/>
<feColorMatrix in="SourceAlpha" type="matrix" values="0 0 0 0 0 0 0 0 0 0 0 0 0 0 0 0 0 0 127 0" result="hardAlpha"/>
<feOffset dy="0.15"/>
<feGaussianBlur stdDeviation="0.5"/>
<feComposite in2="hardAlpha" operator="out"/>
<feColorMatrix type="matrix" values="0 0 0 0 0.917647 0 0 0 0 0.615686 0 0 0 0 0.137255 0 0 0 1 0"/>
<feBlend mode="normal" in2="BackgroundImageFix" result="effect1_dropShadow_48_751"/>
<feBlend mode="normal" in="SourceGraphic" in2="effect1_dropShadow_48_751" result="shape"/>
</filter>
<filter id="filter8_f_48_751" x="13.8069" y="4.50269" width="12.3943" height="8.55103" filterUnits="userSpaceOnUse" color-interpolation-filters="sRGB">
<feFlood flood-opacity="0" result="BackgroundImageFix"/>
<feBlend mode="normal" in="SourceGraphic" in2="BackgroundImageFix" result="shape"/>
<feGaussianBlur stdDeviation="1" result="effect1_foregroundBlur_48_751"/>
</filter>
<linearGradient id="paint0_linear_48_751" x1="27.7838" y1="15.142" x2="19.425" y2="27.407" gradientUnits="userSpaceOnUse">
<stop stop-color="#FFD741"/>
<stop offset="1" stop-color="#FFBE37"/>
</linearGradient>
<radialGradient id="paint1_radial_48_751" cx="0" cy="0" r="1" gradientUnits="userSpaceOnUse" gradientTransform="translate(24.5025 10.6895) rotate(122.645) scale(5.93801 8.2569)">
<stop stop-color="#FFDC38"/>
<stop offset="1" stop-color="#FFDC38" stop-opacity="0"/>
</radialGradient>
<radialGradient id="paint2_radial_48_751" cx="0" cy="0" r="1" gradientUnits="userSpaceOnUse" gradientTransform="translate(32.5488 27.7982) rotate(-136.375) scale(3.45366 2.75603)">
<stop stop-color="#FFCB41"/>
<stop offset="1" stop-color="#FFCB41" stop-opacity="0"/>
</radialGradient>
<radialGradient id="paint3_radial_48_751" cx="0" cy="0" r="1" gradientUnits="userSpaceOnUse" gradientTransform="translate(33.37 26.3145) rotate(-138.778) scale(5.86848 1.60315)">
<stop stop-color="#F48E5A"/>
<stop offset="1" stop-color="#F48E5A" stop-opacity="0"/>
</radialGradient>
<radialGradient id="paint4_radial_48_751" cx="0" cy="0" r="1" gradientUnits="userSpaceOnUse" gradientTransform="translate(30.1275 31.392) rotate(-134.193) scale(7.84524 2.14316)">
<stop stop-color="#F48E5A"/>
<stop offset="1" stop-color="#F48E5A" stop-opacity="0"/>
</radialGradient>
<radialGradient id="paint5_radial_48_751" cx="0" cy="0" r="1" gradientUnits="userSpaceOnUse" gradientTransform="translate(24.6588 33.697) rotate(-133.968) scale(6.13294 1.94466)">
<stop stop-color="#F48E5A"/>
<stop offset="1" stop-color="#F48E5A" stop-opacity="0"/>
</radialGradient>
<radialGradient id="paint6_radial_48_751" cx="0" cy="0" r="1" gradientUnits="userSpaceOnUse" gradientTransform="translate(20.4013 36.157) rotate(-139.295) scale(7.00789 2.05415)">
<stop stop-color="#F48E5A"/>
<stop offset="1" stop-color="#F48E5A" stop-opacity="0"/>
</radialGradient>
<linearGradient id="paint7_linear_48_751" x1="21.3675" y1="32.6108" x2="16.83" y2="28.1583" gradientUnits="userSpaceOnUse">
<stop stop-color="#FFCD43"/>
<stop offset="1" stop-color="#FFCD43" stop-opacity="0"/>
</linearGradient>
<linearGradient id="paint8_linear_48_751" x1="32.9013" y1="22.6582" x2="21.5725" y2="12.8145" gradientUnits="userSpaceOnUse">
<stop stop-color="#FFE647"/>
<stop offset="1" stop-color="#FFE647" stop-opacity="0"/>
</linearGradient>
<linearGradient id="paint9_linear_48_751" x1="30.2525" y1="27.2507" x2="25.7138" y2="22.7982" gradientUnits="userSpaceOnUse">
<stop stop-color="#FFD941"/>
<stop offset="1" stop-color="#FFD941" stop-opacity="0"/>
</linearGradient>
<linearGradient id="paint10_linear_48_751" x1="26.185" y1="30.4633" x2="21.6463" y2="26.0096" gradientUnits="userSpaceOnUse">
<stop stop-color="#FFD63F"/>
<stop offset="1" stop-color="#FFD63F" stop-opacity="0"/>
</linearGradient>
<linearGradient id="paint11_linear_48_751" x1="9.1513" y1="19.0482" x2="3.72129" y2="24.282" gradientUnits="userSpaceOnUse">
<stop stop-color="#FFBC41"/>
<stop offset="1" stop-color="#E69429"/>
</linearGradient>
<linearGradient id="paint12_linear_48_751" x1="8.66255" y1="24.0682" x2="7.45255" y2="22.7782" gradientUnits="userSpaceOnUse">
<stop stop-color="#E08407"/>
<stop offset="1" stop-color="#E08407" stop-opacity="0"/>
</linearGradient>
<radialGradient id="paint13_radial_48_751" cx="0" cy="0" r="1" gradientUnits="userSpaceOnUse" gradientTransform="translate(6.1438 26.1182) rotate(-88.8767) scale(3.98514 3.60369)">
<stop stop-color="#DA725B"/>
<stop offset="1" stop-color="#DA725B" stop-opacity="0"/>
</radialGradient>
<radialGradient id="paint14_radial_48_751" cx="0" cy="0" r="1" gradientUnits="userSpaceOnUse" gradientTransform="translate(10.1852 18.1493) rotate(136.229) scale(3.21863 3.11279)">
<stop stop-color="#FFE43E"/>
<stop offset="1" stop-color="#FFE43E" stop-opacity="0"/>
</radialGradient>
<linearGradient id="paint15_linear_48_751" x1="12.94" y1="22.2083" x2="6.87755" y2="28.0533" gradientUnits="userSpaceOnUse">
<stop stop-color="#FFBC41"/>
<stop offset="1" stop-color="#E69429"/>
</linearGradient>
<linearGradient id="paint16_linear_48_751" x1="12.395" y1="27.8146" x2="11.0425" y2="26.3746" gradientUnits="userSpaceOnUse">
<stop stop-color="#E08407"/>
<stop offset="1" stop-color="#E08407" stop-opacity="0"/>
</linearGradient>
<radialGradient id="paint17_radial_48_751" cx="0" cy="0" r="1" gradientUnits="userSpaceOnUse" gradientTransform="translate(8.99505 29.9071) rotate(-83.0945) scale(5.19828 6.14303)">
<stop stop-color="#E8766E"/>
<stop offset="1" stop-color="#E8766E" stop-opacity="0"/>
</radialGradient>
<radialGradient id="paint18_radial_48_751" cx="0" cy="0" r="1" gradientUnits="userSpaceOnUse" gradientTransform="translate(13.6833 21.5876) rotate(136.026) scale(3.03125 2.9316)">
<stop stop-color="#FFE43E"/>
<stop offset="1" stop-color="#FFE43E" stop-opacity="0"/>
</radialGradient>
<linearGradient id="paint19_linear_48_751" x1="18.7775" y1="29.5521" x2="13.8388" y2="34.3183" gradientUnits="userSpaceOnUse">
<stop stop-color="#FFBC41"/>
<stop offset="1" stop-color="#E69429"/>
</linearGradient>
<linearGradient id="paint20_linear_48_751" x1="14.62" y1="30.2596" x2="16.3763" y2="31.3946" gradientUnits="userSpaceOnUse">
<stop offset="0.156" stop-color="#E08407"/>
<stop offset="1" stop-color="#E08407" stop-opacity="0"/>
</linearGradient>
<radialGradient id="paint21_radial_48_751" cx="0" cy="0" r="1" gradientUnits="userSpaceOnUse" gradientTransform="translate(15.5188 36.1571) rotate(-84.1036) scale(4.56293 5.40032)">
<stop stop-color="#E8766E"/>
<stop offset="1" stop-color="#E8766E" stop-opacity="0"/>
</radialGradient>
<radialGradient id="paint22_radial_48_751" cx="0" cy="0" r="1" gradientUnits="userSpaceOnUse" gradientTransform="translate(19.3825 29.0458) rotate(136.071) scale(2.47086 2.38949)">
<stop stop-color="#FFE43E"/>
<stop offset="1" stop-color="#FFE43E" stop-opacity="0"/>
</radialGradient>
<linearGradient id="paint23_linear_48_751" x1="15.9775" y1="25.8296" x2="10.4613" y2="31.1558" gradientUnits="userSpaceOnUse">
<stop stop-color="#FFBC41"/>
<stop offset="1" stop-color="#E69429"/>
</linearGradient>
<linearGradient id="paint24_linear_48_751" x1="15.8313" y1="31.2358" x2="14.68" y2="30.0033" gradientUnits="userSpaceOnUse">
<stop stop-color="#E08407"/>
<stop offset="1" stop-color="#E08407" stop-opacity="0"/>
</linearGradient>
<radialGradient id="paint25_radial_48_751" cx="0" cy="0" r="1" gradientUnits="userSpaceOnUse" gradientTransform="translate(12.3829 32.8325) rotate(-83.082) scale(4.72871 5.59821)">
<stop stop-color="#E8766E"/>
<stop offset="1" stop-color="#E8766E" stop-opacity="0"/>
</radialGradient>
<radialGradient id="paint26_radial_48_751" cx="0" cy="0" r="1" gradientUnits="userSpaceOnUse" gradientTransform="translate(16.653 25.2654) rotate(136.08) scale(2.76001 2.6691)">
<stop stop-color="#FFE43E"/>
<stop offset="1" stop-color="#FFE43E" stop-opacity="0"/>
</radialGradient>
<radialGradient id="paint27_radial_48_751" cx="0" cy="0" r="1" gradientUnits="userSpaceOnUse" gradientTransform="translate(23.5213 18.9694) rotate(-33.6901) scale(15.1606 23.8276)">
<stop offset="0.361" stop-color="#FFE949" stop-opacity="0"/>
<stop offset="1" stop-color="#FFE949"/>
</radialGradient>
<radialGradient id="paint28_radial_48_751" cx="0" cy="0" r="1" gradientUnits="userSpaceOnUse" gradientTransform="translate(13.2363 11.0206) rotate(-21.4028) scale(5.40116 8.67311)">
<stop stop-color="#EE9226"/>
<stop offset="1" stop-color="#EE9226" stop-opacity="0"/>
</radialGradient>
<radialGradient id="paint29_radial_48_751" cx="0" cy="0" r="1" gradientUnits="userSpaceOnUse" gradientTransform="translate(22.9287 19.2329) rotate(-38.55) scale(10.7531 10.2618)">
<stop stop-color="#F7A91E"/>
<stop offset="1" stop-color="#F7A91E" stop-opacity="0"/>
</radialGradient>
<radialGradient id="paint30_radial_48_751" cx="0" cy="0" r="1" gradientUnits="userSpaceOnUse" gradientTransform="translate(24.835 16.9994) rotate(-35.9316) scale(14.4428 22.597)">
<stop offset="0.661" stop-color="#FFEA49" stop-opacity="0"/>
<stop offset="1" stop-color="#FFEA49"/>
</radialGradient>
</defs>
</svg>
