<svg width="40" height="40" viewBox="0 0 40 40" fill="none" xmlns="http://www.w3.org/2000/svg">
<path d="M25 0C27.75 0 30 2.25 30 5C30 7.25 28.5 9.25 26.25 9.75V10C27.25 10 28 10.5 28.75 11.25L32 14.5C32.25 14.75 32.75 15 33.25 15H37.5V0H25Z" fill="black"/>
<path d="M29.5 36.25L20 25V31.25C20 33.25 18.25 35 16.25 35H7.5C6 35 5 34 5 32.5C5 31 6 30 7.5 30H13.75C14.5 30 15 29.5 15 28.75V23.75C15 22 15.25 20.5 16 18.75L17.75 15H15.75C14.5 15 13.5 15.5 12.75 16.5L11.5 18.25C11 19.25 9.75 19.5 8.5 19C7.5 18.25 7 16.75 8 15.75L9.5 13.75C11.25 11.25 14.25 10 17.25 10H22.25L22.5 9.25C21 8.5 20 6.75 20 5C20 2.25 22.25 0 25 0H7.5V12.25L6 14.25C5.25 15.25 4.75 16.5 5 18C5.25 19.25 6 20.5 7.25 21.25V27.5C4.5 27.5 2.25 29.75 2.25 32.5C2.25 35.25 4.5 37.5 7.25 37.5V40H36.25C33.5 40 31 38.5 29.5 36.25Z" fill="black"/>
<path d="M28.5 18.25L26.75 16.25L25.25 20C24.75 21.25 24.5 22.25 25.25 23.25L37.5 38.5V20H32.25C30.75 20 29.5 19.5 28.5 18.25Z" fill="black"/>
</svg>
